PathFileType	4	(X/Y/Z)	C:\Users\WrightLab\Desktop\Jo\P1_boxCal10.trc
DataRate	CameraRate	NumFrames	NumMarkers	Units	OrigDataRate	OrigDataStartFrame	OrigNumFrames
100.00	100.00	       19	19	mm	100.00	313	       625
Frame#	Time	Headset_Front			Headset_Back			Headset_Left			Headset_Right			Left_Shoulder			Right_Shoulder			Sternum			C7			Left Elbow			Right Elbow			Left Wrist			Right Wrist			Left ASIS			Right ASIS			S2			Left Knee			Right Knee			Left Ankle			Right Ankle			
		X1	Y1	Z1	X2	Y2	Z2	X3	Y3	Z3	X4	Y4	Z4	X5	Y5	Z5	X6	Y6	Z6	X7	Y7	Z7	X8	Y8	Z8	X9	Y9	Z9	X10	Y10	Z10	X11	Y11	Z11	X12	Y12	Z12	X13	Y13	Z13	X14	Y14	Z14	X15	Y15	Z15	X16	Y16	Z16	X17	Y17	Z17	X18	Y18	Z18	X19	Y19	Z19	

313	3.120	-312.27267	1440.81799	465.23166	-414.16867	1528.79602	189.14838	-269.32922	1473.33325	265.40198	-447.77493	1466.96362	405.63519	-232.90781	1283.81165	169.75520	-562.80450	1293.99792	364.69406	-350.19907	1191.32129	393.93243	-445.55673	1295.60242	163.30101	-189.14603	961.83911	98.27811	-671.60730	1027.08044	372.16107	-70.78819	803.15741	178.26152	-655.33044	808.11420	512.53247	-266.35614	902.63708	352.01682	-442.02438	909.10376	443.38254	-491.22000	915.32660	118.94923	-288.58380	459.50812	190.50626	-507.55975	510.30017	486.20621	-361.92624	91.07355	175.58177	-557.28162	148.28229	385.52386	
314	3.130	-309.11029	1441.24329	473.63669	-409.24796	1528.43799	196.46088	-264.90274	1474.06799	272.80829	-444.30051	1467.20789	412.92084	-228.22864	1283.75769	176.94627	-557.58380	1294.30029	372.51678	-344.23892	1190.58301	401.18301	-441.05405	1295.83264	171.46486	-182.97556	961.95905	107.65103	-667.11761	1027.93848	381.27380	-64.29476	804.49908	189.72076	-653.54498	807.57062	518.53375	-262.34171	902.32568	358.85193	-436.91309	909.99164	451.71970	-487.90344	915.23926	127.40257	-289.63797	460.37405	194.45212	-497.94653	511.57190	495.02783	-364.34686	91.75172	176.11684	-538.36755	141.20428	410.73822	
315	3.140	-305.65414	1441.42761	481.79019	-404.70956	1528.17566	204.48520	-260.21320	1473.80652	283.92947	-441.30389	1467.09180	420.68484	-223.04213	1283.62463	184.68294	-552.62628	1294.69189	380.82053	-340.19131	1190.94080	410.28329	-436.10974	1295.63135	178.96405	-177.17336	961.96185	117.34206	-662.26868	1028.45056	389.98428	-58.23722	805.79498	200.86552	-652.14636	806.93427	525.09869	-256.48773	901.96808	366.03830	-431.44565	910.11707	460.05234	-485.13989	915.77765	136.38106	-289.81909	461.62326	198.80038	-487.77850	512.28253	503.43347	-363.37326	93.08683	176.68094	-519.40436	135.10300	436.71292	
316	3.150	-302.77423	1441.23450	490.19540	-399.89212	1527.71558	211.75865	-256.18179	1474.34302	290.65973	-437.14056	1466.56470	427.68433	-218.21025	1283.34143	193.15038	-547.87408	1294.57813	388.50601	-335.01022	1191.05115	417.49326	-431.30280	1294.94800	186.97845	-171.72012	961.38104	123.94900	-657.49939	1028.32544	398.96686	-52.39978	806.31366	212.79469	-650.84863	806.56146	531.48474	-252.03284	901.99756	373.19315	-425.56302	910.86621	468.95004	-482.05499	915.87952	145.50591	-291.58990	461.35748	204.71696	-478.68488	512.74652	512.04150	-363.54892	94.52879	178.16467	-499.81934	129.27475	462.37064	
317	3.160	-300.57327	1441.75244	498.87265	-395.24210	1526.93347	219.20335	-251.59717	1473.79309	301.38519	-434.01538	1465.61487	435.36374	-213.48050	1282.74878	201.45718	-543.04199	1294.39441	396.86954	-329.49649	1190.07019	425.41171	-426.23737	1294.11194	195.20201	-165.85962	961.32751	132.41121	-652.89484	1028.60303	408.01675	-46.52010	807.02997	224.73537	-649.68555	805.87970	538.23157	-247.01501	902.02649	380.80820	-419.87836	911.11383	477.90854	-478.92380	915.73517	154.03688	-291.60251	460.75760	209.60902	-470.32657	512.57416	519.53253	-364.41174	95.77919	177.52586	-479.28906	125.30654	488.73572	
318	3.170	-297.09100	1441.62085	507.04889	-391.01007	1526.25098	227.34642	-247.46417	1473.77002	309.27103	-430.42078	1464.92468	442.54938	-208.68793	1282.02759	209.97923	-538.59338	1294.08325	404.96713	-326.40366	1190.45776	434.77148	-421.86066	1292.87256	203.17195	-160.89410	960.25720	140.69284	-648.49548	1028.31531	417.51221	-40.38216	807.30371	235.84035	-649.06213	805.41058	545.34766	-241.56174	902.46313	388.47894	-414.85452	911.09052	486.51770	-476.05737	916.00970	163.22238	-291.34222	461.17126	214.81609	-461.44028	511.38705	526.59192	-365.51862	96.05675	178.46597	-459.55746	121.45215	514.60895	
319	3.180	-293.77847	1441.23376	515.28204	-386.17892	1525.20142	234.52670	-243.62418	1473.81238	315.11661	-427.41391	1464.32007	450.46661	-204.50662	1281.28088	217.54053	-533.93640	1293.21130	413.16833	-322.30588	1190.90405	443.80826	-417.17993	1291.75085	211.50082	-155.15031	959.10229	150.11609	-643.75403	1027.70105	426.32065	-34.71416	808.10779	247.31346	-648.19916	804.62366	552.44055	-237.68665	901.35815	396.82718	-409.88452	911.10541	496.22058	-472.77542	915.65723	172.49110	-290.87354	460.45953	220.58759	-453.29019	509.87253	533.24109	-366.36429	97.33018	179.76892	-439.53461	119.51107	539.69604	
320	3.190	-291.05273	1440.70410	524.00189	-381.74521	1523.97205	242.23700	-239.24686	1472.76807	327.01587	-424.29199	1463.52283	457.97952	-200.18579	1280.17041	225.73161	-529.30536	1292.25012	421.67642	-316.99234	1189.77588	451.87979	-413.07108	1290.52673	220.45946	-150.52992	958.24176	158.88158	-638.97137	1026.84167	435.32904	-29.35662	807.71307	257.53268	-647.19196	803.92786	559.77625	-232.78777	900.26831	404.35184	-404.01563	910.38049	505.89786	-470.33276	915.37213	182.07185	-290.31424	458.81451	226.86778	-445.34491	507.47745	539.32471	-366.90012	97.52504	180.79375	-420.17905	121.22885	564.74652	
321	3.200	-288.06567	1440.64771	532.54285	-377.67126	1522.67224	250.40456	-235.31174	1471.87183	336.95975	-421.05115	1462.63501	465.82782	-195.94537	1278.89880	234.34497	-524.88922	1291.27979	430.29425	-312.13312	1188.31335	460.10101	-408.60291	1289.04553	229.03191	-145.12587	956.99945	167.90111	-634.67664	1025.65552	444.30417	-23.95155	807.32758	269.48984	-646.63434	803.20380	567.09918	-227.81128	899.79333	412.30731	-398.50842	909.50653	515.41327	-467.31528	914.87006	192.23602	-287.78049	458.64444	230.38811	-438.11465	505.34268	545.49658	-365.84283	97.24329	181.08467	-399.94373	121.83512	586.16980	
322	3.210	-284.69189	1440.24341	541.15161	-373.52621	1520.98071	258.24283	-231.77081	1471.35645	343.70139	-417.72299	1461.97339	473.53357	-191.61386	1277.59692	243.05139	-520.71027	1290.30298	439.14774	-306.38980	1187.02332	468.37808	-404.57706	1287.57678	237.76018	-140.46756	955.91937	176.68340	-630.09497	1024.41187	453.21005	-19.03351	806.42896	278.54572	-646.11273	802.21228	574.55713	-222.62726	898.60779	420.51944	-393.32129	908.33496	525.65466	-464.96701	914.69763	202.66963	-285.23389	458.04141	234.23882	-430.82465	502.21884	551.74451	-364.99341	97.06757	181.65837	-380.67047	125.92496	608.32568	
323	3.220	-281.68393	1440.16248	550.00702	-369.53500	1519.10352	266.27081	-227.65855	1469.97009	353.21545	-414.99149	1460.87244	481.82401	-187.82465	1276.42896	251.37401	-516.06342	1288.74939	448.36212	-303.27435	1187.16235	479.40399	-400.38318	1285.88794	246.76398	-136.05772	954.46173	186.63918	-626.06958	1023.35516	462.17661	-14.20196	805.31378	288.65421	-645.47156	801.55859	582.19409	-217.98622	897.71289	428.23868	-387.23969	906.74066	535.22473	-461.52219	913.08978	213.44835	-282.45575	457.80228	239.12775	-422.82828	499.25427	558.64850	-364.35104	97.41924	182.96849	-361.08063	131.62300	626.26862	
324	3.230	-278.74609	1439.28992	559.04175	-366.01440	1517.24622	274.89951	-224.32623	1469.11877	361.13412	-410.74997	1459.62671	490.35214	-183.97025	1275.03882	259.81406	-511.79086	1287.38416	458.07858	-297.83255	1185.51233	487.56046	-396.75629	1284.11621	256.04178	-131.01826	952.28259	196.60966	-621.75555	1021.85931	470.79007	-8.99866	805.09186	300.49329	-645.10284	800.50427	590.03772	-213.04193	896.73102	436.67450	-381.16940	905.14594	545.09357	-459.10275	912.55841	224.30974	-279.54233	457.00623	244.15993	-415.47510	497.03165	566.66498	-364.40359	99.85837	184.95064	-343.04385	135.14363	641.15045	
325	3.240	-275.26117	1438.86475	567.66791	-362.38412	1514.88794	283.02475	-220.71303	1467.90186	370.09482	-407.76871	1458.24207	498.70523	-180.02231	1273.40002	268.61716	-507.77438	1285.69421	467.80258	-291.63754	1184.12390	495.27356	-392.88879	1281.96497	265.40948	-126.28512	951.50256	206.67075	-617.84845	1020.46320	479.76218	-4.92965	803.47028	309.34784	-644.19220	799.25446	598.01135	-207.52554	895.14111	444.80917	-375.46249	903.02844	555.32990	-456.46429	912.01678	235.41655	-276.03232	456.75131	249.18752	-408.73401	494.16196	575.11707	-364.68036	99.69451	185.08936	-326.97711	140.64880	656.01959	
326	3.250	-271.84012	1438.23645	576.67609	-359.01364	1513.20569	291.68546	-217.29802	1466.28625	381.06216	-404.66113	1456.93250	507.31900	-176.24628	1272.15332	277.58713	-503.33643	1283.98767	477.56290	-287.42316	1182.78247	505.67227	-389.29572	1280.01147	274.97345	-121.49207	949.50781	216.45270	-614.17090	1018.63513	488.66666	-0.48448	801.74548	319.11911	-643.81342	798.28339	605.97791	-202.31027	894.22656	453.63739	-368.55685	900.83124	564.79102	-453.14990	910.27179	246.15697	-272.99747	456.20694	254.61533	-401.89774	492.73840	583.88019	-364.71759	101.22824	186.47577	-314.01364	144.13043	670.06787	
327	3.260	-269.16183	1437.54932	585.93939	-355.60455	1510.80786	300.03644	-213.87019	1465.12134	388.72736	-401.45657	1455.40381	516.31647	-172.99872	1270.32471	287.19107	-499.30994	1282.39624	488.08453	-284.31305	1182.55383	516.87183	-385.75311	1277.78931	284.38684	-117.42928	947.79645	226.83044	-610.35828	1017.20557	498.08063	3.68858	800.14532	327.60477	-643.51379	797.12463	614.17535	-196.89540	892.46252	461.12009	-362.32883	898.68567	573.93707	-450.41864	908.87518	257.49747	-269.62033	456.95123	258.67465	-394.82849	490.01840	593.39294	-365.56042	101.79427	187.69337	-301.37170	146.43427	683.64984	
328	3.270	-265.96597	1437.04150	595.01770	-352.81210	1508.52258	309.24927	-211.01711	1464.03162	396.86224	-398.02554	1453.72278	525.42914	-169.01442	1268.49988	295.59344	-495.22696	1280.36255	498.38901	-278.51083	1180.60193	525.96106	-382.50586	1275.66821	294.53802	-114.04785	946.17969	236.40263	-606.98993	1015.11389	507.04297	7.46416	798.19232	337.22424	-642.80084	795.80212	622.45581	-191.49693	891.20526	469.57623	-355.79999	896.69714	583.35828	-447.55560	906.91510	268.42633	-266.66913	455.71335	265.38486	-387.54092	487.64328	603.16711	-365.50256	103.28317	188.84805	-290.40512	148.21484	696.87860	
329	3.280	-262.86719	1436.51648	604.34344	-349.78485	1506.08667	317.99176	-208.02246	1462.26660	406.86877	-395.52475	1452.74902	534.56580	-165.66138	1267.28198	305.40280	-491.20737	1278.51111	508.65900	-274.03766	1179.32410	536.55511	-379.16690	1273.28625	304.55347	-109.28020	944.45074	247.17799	-603.17444	1013.12396	517.32178	11.17181	796.26453	346.79260	-642.17938	794.53741	630.51489	-186.35036	888.83099	478.75040	-349.61093	894.74585	593.66663	-444.13745	905.42505	279.54645	-263.95514	455.83578	270.76303	-379.54684	486.27039	613.39221	-366.61996	103.84435	189.73352	-279.74063	148.65242	708.29407	
330	3.290	-259.88480	1435.64441	613.88977	-346.97302	1503.93359	327.09543	-204.98109	1460.47961	417.56631	-392.49887	1451.68677	543.77063	-162.67174	1265.22400	315.21625	-487.24680	1276.61023	519.42206	-269.14978	1177.24597	546.24866	-375.73117	1271.18652	315.00378	-105.93309	942.62793	257.65793	-599.45416	1010.89838	526.79559	14.79538	793.89063	354.56583	-641.12036	792.84821	639.13013	-180.52077	887.75482	487.52689	-342.79489	892.48273	603.42261	-440.69006	903.39844	290.46140	-260.43958	455.41599	277.59991	-371.31702	485.76450	624.04895	-367.24887	106.34047	191.19946	-270.64731	146.68881	716.77673	
331	3.300	-257.48297	1435.88379	623.59143	-344.49219	1501.65540	336.35745	-202.06894	1459.15015	425.69943	-389.85086	1450.62341	553.73010	-160.05035	1263.84351	324.91013	-483.63489	1274.50269	530.57367	-264.99701	1176.39343	556.89178	-372.86331	1268.87366	325.94571	-102.47530	941.05945	270.32870	-595.55524	1009.02930	537.63257	17.96876	791.88696	363.73251	-639.77490	791.09052	647.39722	-174.90967	886.66595	496.03638	-336.51370	891.05518	613.36011	-437.14954	901.55682	301.48093	-257.05103	455.15115	284.23215	-362.47095	484.58975	634.71442	-367.96814	107.04879	191.96677	-264.01648	144.46706	724.65790	
